# xmcd
#
# Track frame offsets: 
#        150
#        21804
#        42133
#        56930
#        87098
#        107453
#        132435
#        149050
#        177929
#        195119
#        209946
#        229372
#
# Disc length: 3421 seconds
#
# Revision: 0
# Processed by: cddbd v1.5.2PL0 Copyright (c) Steve Scherf et al.
# Submitted via: ExactAudioCopyFreeDBPlugin 1.0
#
DISCID=af0d5b0c
DTITLE=Eamonn McCormack - Heal My Faith
DYEAR=2012
DGENRE=Blues
TTITLE0=Heal My Faith
TTITLE1=Voices In Your Head
TTITLE2=That's Rock n' Roll
TTITLE3=A Night In The Life Of An Old Blues Singer
TTITLE4=Shadow Play
TTITLE5=Bad Luck
TTITLE6=Throw Caution To The Wind
TTITLE7=Self-pity In New York City
TTITLE8=I Don't Care What You Say
TTITLE9=I'll Tell You Why
TTITLE10=My Saving Angel
TTITLE11=Shine Your Light
EXTD=
EXTT0=
EXTT1=
EXTT2=
EXTT3=
EXTT4=
EXTT5=
EXTT6=
EXTT7=
EXTT8=
EXTT9=
EXTT10=
EXTT11=
PLAYORDER=
